<svg class="img-fluid" id="outputsvg" xmlns="http://www.w3.org/2000/svg" style="transform: matrix(0.856831, 0, 0, 0.856831, -18.7868, 13.1071); transform-origin: 50% 50%; cursor: move; max-height: none; transition: transform 200ms ease-in-out 0s;" width="1000" height="1000" viewBox="0 0 10000 10000"><g id="l1MPEiYLKFNEH9jbbzLJxOt" fill="rgb(0,0,0)" style="transform: none;"><g style="transform: none;"><path id="p17ZTI4K0u" d="M 4725 7148 c -99 -15 -252 -45 -295 -58 -14 -4 -59 -18 -100 -30 -41 -12 -84 -26 -95 -30 -11 -5 -58 -23 -105 -41 -75 -29 -138 -58 -205 -96 -11 -6 -36 -17 -55 -24 -44 -17 -296 -183 -330 -218 -14 -14 -54 -51 -90 -81 -130 -109 -276 -264 -334 -354 -32 -49 -64 -95 -72 -103 -8 -8 -14 -18 -14 -23 0 -5 -6 -15 -13 -22 -20 -20 -77 -106 -77 -115 0 -5 -13 -24 -28 -42 -28 -34 -28 -34 -64 1 -38 35 -88 130 -107 205 -7 23 -16 45 -22 49 -29 18 -66 -108 -49 -166 6 -19 15 -82 19 -139 9 -122 19 -136 89 -127 49 7 52 0 23 -60 -47 -97 -83 -230 -102 -369 -6 -44 -15 -107 -20 -140 -17 -105 -23 -393 -10 -495 21 -173 47 -332 62 -385 15 -51 50 -159 59 -180 4 -11 18 -47 31 -80 12 -33 26 -65 30 -70 4 -6 31 -55 59 -109 53 -101 160 -269 190 -296 9 -8 19 -22 22 -30 22 -60 357 -400 394 -400 5 0 27 -17 49 -38 38 -37 187 -142 201 -142 3 0 19 -9 34 -20 45 -32 194 -110 275 -145 87 -37 121 -49 190 -65 28 -6 79 -20 115 -30 82 -22 228 -51 340 -67 73 -10 539 -10 615 0 102 13 272 46 300 57 11 5 32 11 48 14 71 15 86 19 152 38 39 12 74 25 79 30 6 4 16 8 24 8 14 0 157 68 247 118 120 66 220 130 273 175 31 27 80 64 109 84 71 47 261 238 308 309 22 32 53 74 70 94 71 79 129 176 263 437 5 10 15 30 21 46 6 15 15 37 21 50 21 50 50 152 50 178 0 15 4 30 9 33 5 3 11 20 14 38 3 18 10 53 16 78 40 165 61 425 49 620 -5 80 -13 161 -18 181 -6 20 -10 49 -10 64 0 15 -5 46 -11 69 -6 22 -15 58 -20 79 -5 20 -13 54 -18 75 -6 20 -15 60 -22 87 -7 28 -16 54 -20 60 -5 5 -9 15 -9 22 0 25 -137 315 -152 321 -4 2 -8 8 -8 13 0 10 -97 159 -110 169 -3 3 -17 21 -30 40 -13 19 -27 37 -30 40 -4 3 -25 32 -48 65 -45 66 -95 123 -128 146 -12 8 -51 41 -86 74 -137 128 -386 315 -418 315 -5 0 -10 5 -10 10 0 6 -6 10 -13 10 -7 0 -76 32 -154 70 -78 39 -148 70 -155 70 -8 0 -18 4 -23 8 -6 5 -44 19 -85 31 -41 13 -84 27 -95 31 -11 5 -31 11 -45 13 -14 3 -52 12 -85 20 -71 18 -143 32 -243 46 -86 13 -531 12 -617 -1 z  m 580 -148 c 136 -17 268 -41 335 -63 25 -8 65 -20 90 -27 25 -8 50 -17 55 -21 6 -4 21 -9 34 -11 30 -4 39 -26 14 -34 -69 -23 -93 -42 -159 -127 -98 -128 -95 -121 -63 -158 12 -13 33 -40 48 -59 14 -19 28 -37 31 -40 21 -18 71 -102 132 -219 39 -75 57 -97 114 -132 18 -11 46 -42 64 -69 31 -49 31 -49 14 -87 -10 -21 -31 -57 -47 -81 -68 -102 -115 -221 -136 -349 -7 -44 -19 -74 -40 -100 -16 -21 -35 -58 -41 -83 -16 -58 -6 -94 68 -250 45 -95 59 -165 67 -340 2 -63 8 -157 11 -208 7 -93 7 -93 -22 -86 -16 4 -33 10 -39 14 -5 3 -30 12 -55 19 -25 7 -53 17 -62 22 -10 5 -26 9 -35 9 -32 1 -56 28 -63 72 -8 43 -24 117 -41 193 -18 74 -22 132 -10 139 7 5 11 43 11 103 0 81 -2 94 -15 89 -11 -4 -19 3 -25 19 -15 38 -59 31 -117 -19 -34 -29 -31 -91 8 -173 32 -65 32 -65 19 -165 -11 -82 -11 -114 0 -181 23 -148 52 -184 185 -237 33 -13 85 -37 115 -54 148 -79 166 -86 266 -96 133 -14 138 -19 128 -130 -10 -108 -8 -147 12 -188 18 -40 44 -57 114 -78 76 -23 154 -6 213 46 41 37 41 37 42 116 1 45 -4 85 -10 94 -6 8 -18 35 -25 60 -18 59 -37 80 -72 80 -18 0 -38 10 -53 26 -29 32 -32 52 -7 60 85 28 122 74 122 151 0 25 4 73 10 107 5 33 12 92 16 129 4 47 10 70 21 74 8 3 45 -10 81 -29 37 -19 96 -51 132 -69 121 -64 205 -75 230 -29 16 30 12 82 -10 118 -16 27 -26 32 -56 32 -20 0 -54 -5 -74 -11 -35 -11 -41 -9 -86 22 -51 35 -126 90 -157 115 -10 8 -38 25 -63 37 -42 20 -46 20 -72 5 -16 -9 -43 -47 -65 -90 -21 -40 -42 -74 -47 -76 -8 -3 -36 51 -88 168 -45 101 -51 124 -58 205 -7 85 -7 85 47 132 64 57 214 206 249 248 83 99 102 127 125 179 14 31 25 68 25 82 0 37 -24 77 -64 107 -19 15 -40 32 -48 39 -88 83 -181 141 -332 208 -48 22 -48 22 -41 94 6 70 23 138 38 152 4 4 7 16 7 26 0 45 -129 0 -152 -54 -7 -15 -18 -28 -24 -28 -6 0 -55 45 -108 100 -96 101 -96 101 -96 155 0 30 5 67 11 82 31 74 40 90 63 112 14 14 26 30 26 38 0 18 9 17 58 -7 22 -11 46 -20 52 -20 5 0 10 -4 10 -10 0 -5 5 -10 10 -10 6 0 40 -18 76 -40 36 -22 68 -40 70 -40 6 0 157 -101 164 -110 3 -3 19 -16 37 -28 18 -13 49 -40 70 -61 21 -20 54 -48 73 -62 78 -53 267 -264 319 -353 13 -22 26 -43 30 -46 29 -21 166 -272 222 -407 5 -13 13 -33 18 -45 5 -13 15 -41 22 -63 6 -22 15 -49 20 -60 4 -11 10 -33 14 -50 3 -16 10 -48 16 -70 82 -321 74 -676 -23 -1015 -5 -19 -12 -47 -15 -63 -3 -15 -9 -30 -14 -33 -5 -3 -9 -14 -9 -25 0 -10 -4 -27 -9 -37 -5 -9 -13 -28 -19 -42 -51 -127 -89 -200 -172 -336 -24 -38 -58 -95 -77 -126 -18 -32 -59 -86 -90 -120 -78 -87 -310 -315 -353 -347 -19 -14 -44 -34 -54 -43 -11 -10 -23 -18 -27 -18 -4 0 -45 -23 -91 -51 -115 -72 -272 -156 -335 -180 -13 -5 -33 -13 -45 -19 -13 -5 -68 -23 -123 -41 -55 -17 -109 -35 -120 -39 -11 -4 -47 -13 -80 -20 -33 -6 -78 -16 -100 -20 -111 -24 -242 -32 -460 -27 -126 3 -257 10 -290 15 -150 25 -149 24 -257 53 -54 15 -216 67 -245 80 -13 5 -33 13 -45 18 -76 29 -344 176 -368 201 -3 3 -18 12 -35 20 -64 32 -167 120 -318 274 -168 169 -247 265 -297 362 -17 32 -35 63 -39 69 -5 5 -22 35 -38 65 -17 30 -39 71 -50 90 -10 19 -34 73 -52 120 -18 47 -36 94 -41 105 -4 11 -13 40 -20 65 -7 25 -16 56 -20 70 -18 60 -30 109 -39 170 -6 36 -15 95 -21 131 -13 86 -13 393 1 478 27 172 49 267 91 396 25 76 68 167 77 163 4 -2 39 -18 77 -37 121 -60 173 -72 300 -70 52 1 96 0 97 -2 9 -13 87 -180 98 -209 7 -19 21 -47 31 -62 10 -14 18 -31 18 -37 0 -6 5 -11 10 -11 6 0 10 -5 10 -10 0 -6 18 -33 40 -61 36 -46 40 -56 40 -109 0 -84 12 -107 106 -209 28 -31 56 -72 62 -91 11 -35 37 -429 29 -437 -3 -2 -33 5 -68 16 -34 12 -71 21 -81 21 -10 0 -28 5 -41 12 -12 6 -29 14 -37 18 -21 10 -55 105 -79 225 -6 28 -15 71 -21 97 -8 36 -7 54 5 82 19 45 19 97 0 122 -8 10 -15 29 -15 42 0 12 -4 22 -10 22 -5 0 -10 -3 -10 -8 0 -4 -18 -8 -40 -8 -78 -2 -101 -58 -58 -138 13 -22 28 -46 34 -53 7 -7 13 -80 16 -195 5 -181 5 -184 37 -249 30 -63 36 -68 99 -99 37 -18 77 -36 90 -41 12 -5 32 -13 45 -18 12 -5 59 -27 105 -50 79 -39 197 -69 226 -58 25 10 49 -18 48 -54 0 -19 -2 -69 -3 -111 -2 -70 0 -80 25 -112 36 -48 74 -66 141 -66 77 0 134 35 160 98 14 32 10 67 -22 209 -7 32 -52 73 -79 73 -21 0 -44 25 -44 47 0 4 13 16 29 25 36 20 71 85 71 129 0 30 12 77 31 124 4 11 19 54 33 95 24 75 24 75 106 78 113 4 190 -11 213 -43 17 -23 113 -75 138 -75 26 0 42 34 56 115 8 51 -23 70 -116 70 -72 0 -81 3 -185 55 -97 49 -117 55 -180 58 -96 4 -122 -13 -166 -107 -19 -39 -36 -71 -40 -71 -5 0 -35 61 -102 210 -16 36 -34 73 -39 84 -6 10 -13 52 -16 92 -5 61 -3 74 9 74 29 0 227 142 314 225 12 11 51 46 88 78 83 73 100 104 92 166 -10 70 -27 542 -21 576 3 21 13 34 32 41 53 22 141 37 175 30 26 -5 39 -2 49 10 12 14 10 20 -18 43 -17 14 -53 32 -80 40 -26 8 -70 26 -97 40 -31 15 -67 25 -95 25 -41 1 -47 -2 -60 -28 -7 -16 -17 -73 -22 -125 -7 -98 -13 -127 -31 -171 -6 -14 -14 -34 -19 -45 -57 -138 -62 -244 -17 -341 6 -12 8 -29 6 -39 -3 -15 -73 -63 -118 -81 -8 -4 -94 -45 -190 -93 -96 -47 -177 -87 -180 -89 -3 -1 -14 11 -24 28 -9 17 -27 41 -39 53 -12 13 -47 52 -77 87 -83 98 -210 219 -255 243 -24 13 -69 24 -115 28 -69 7 -108 13 -255 40 -27 5 -69 12 -92 15 -54 8 -54 16 0 116 96 176 329 436 532 594 64 49 253 174 265 174 5 0 10 3 10 8 0 4 10 12 23 18 12 6 49 25 82 42 90 46 147 72 161 72 6 0 65 17 130 39 66 21 142 44 169 50 28 7 66 16 85 21 40 10 140 25 250 39 86 11 366 6 485 -9 z  m 983 -1160 c 22 -11 47 -20 54 -20 7 0 22 -8 33 -16 20 -15 19 -16 -17 -48 -20 -17 -49 -38 -65 -46 -15 -8 -40 -22 -55 -32 -44 -30 -44 -31 -23 102 15 92 12 89 73 60 z "></path></g></g><g id="l5q1ST42irNgO3B57DKVWa8" fill="rgb(255,255,255)" style="transform: none;"><g style="transform: none;"><path id="p9CPIYS1R" d="M 4725 7148 c -99 -15 -252 -45 -295 -58 -14 -4 -59 -18 -100 -30 -41 -12 -84 -26 -95 -30 -11 -5 -58 -23 -105 -41 -75 -29 -138 -58 -205 -96 -11 -6 -36 -17 -55 -24 -44 -17 -296 -183 -330 -218 -14 -14 -54 -51 -90 -81 -130 -109 -276 -264 -334 -354 -32 -49 -64 -95 -72 -103 -8 -8 -14 -18 -14 -23 0 -5 -6 -15 -13 -22 -20 -20 -77 -106 -77 -115 0 -5 -13 -24 -28 -42 -28 -34 -28 -34 -64 1 -36 34 -89 133 -104 193 -3 17 -14 38 -22 48 -14 16 -16 16 -27 0 -23 -34 -36 -115 -25 -153 6 -19 15 -82 19 -139 9 -122 19 -136 89 -127 49 7 52 0 23 -60 -47 -97 -83 -230 -102 -369 -6 -44 -15 -107 -20 -140 -17 -105 -23 -393 -10 -495 21 -173 47 -332 62 -385 15 -51 50 -159 59 -180 4 -11 18 -47 31 -80 12 -33 26 -65 30 -70 4 -6 31 -55 59 -109 53 -101 160 -269 190 -296 9 -8 19 -22 22 -30 22 -60 357 -400 394 -400 5 0 27 -17 49 -38 38 -37 187 -142 201 -142 3 0 19 -9 34 -20 45 -32 194 -110 275 -145 87 -37 121 -49 190 -65 28 -6 79 -20 115 -30 82 -22 228 -51 340 -67 71 -10 536 -10 615 0 97 12 271 45 300 57 11 5 32 11 48 14 71 15 86 19 152 38 39 12 74 25 79 30 6 4 16 8 24 8 14 0 157 68 247 118 120 66 220 130 273 175 31 27 80 64 109 84 71 47 261 238 308 309 22 32 53 74 70 94 71 79 129 176 263 437 5 10 15 30 21 46 6 15 15 37 21 50 21 50 50 152 50 178 0 15 4 30 9 33 5 3 11 20 14 38 3 18 10 53 16 78 40 165 61 425 49 620 -5 80 -13 161 -18 181 -6 20 -10 49 -10 64 0 15 -5 46 -11 69 -6 22 -15 58 -20 79 -5 20 -13 54 -18 75 -6 20 -15 60 -22 87 -7 28 -16 54 -20 60 -5 5 -9 15 -9 22 0 25 -137 315 -152 321 -4 2 -8 8 -8 13 0 10 -97 159 -110 169 -3 3 -17 21 -30 40 -13 19 -27 37 -30 40 -4 3 -25 32 -48 65 -45 66 -95 123 -128 146 -12 8 -51 41 -86 74 -137 128 -386 315 -418 315 -5 0 -10 5 -10 10 0 6 -6 10 -13 10 -7 0 -76 32 -154 70 -78 39 -148 70 -155 70 -8 0 -18 4 -23 8 -6 5 -44 19 -85 31 -41 13 -84 27 -95 31 -11 5 -31 11 -45 13 -14 3 -52 12 -85 20 -71 18 -143 32 -243 46 -86 13 -531 12 -617 -1 z  m 580 -148 c 136 -17 268 -41 335 -63 25 -8 65 -20 90 -27 25 -8 50 -17 55 -21 6 -4 21 -9 34 -11 30 -4 39 -26 14 -34 -69 -23 -93 -42 -159 -127 -98 -128 -95 -121 -63 -158 12 -13 33 -40 48 -59 14 -19 28 -37 31 -40 21 -18 71 -102 132 -219 39 -75 57 -97 114 -132 18 -11 46 -42 64 -69 31 -49 31 -49 14 -87 -10 -21 -31 -57 -47 -81 -68 -102 -115 -221 -136 -349 -7 -44 -19 -74 -40 -100 -16 -21 -35 -58 -41 -83 -16 -58 -6 -94 68 -250 45 -95 59 -165 67 -340 2 -63 8 -157 11 -208 7 -93 7 -93 -22 -86 -16 4 -33 10 -39 14 -5 3 -30 12 -55 19 -25 7 -53 17 -62 22 -10 5 -26 9 -35 9 -32 1 -56 28 -63 72 -8 43 -24 117 -41 193 -18 74 -22 132 -10 139 15 9 15 196 0 196 -5 0 -7 -5 -3 -12 5 -7 3 -8 -5 -4 -7 5 -16 19 -21 32 -15 37 -59 30 -117 -20 -34 -29 -31 -91 8 -173 32 -65 32 -65 19 -165 -11 -82 -11 -114 0 -181 23 -148 52 -184 185 -237 33 -13 85 -37 115 -54 148 -79 166 -86 266 -96 133 -14 138 -19 128 -130 -10 -108 -8 -147 12 -188 18 -40 44 -57 114 -78 76 -23 154 -6 213 46 41 37 41 37 42 116 1 45 -4 85 -10 94 -6 8 -18 35 -25 60 -18 59 -37 80 -72 80 -18 0 -38 10 -53 26 -29 32 -32 52 -7 60 85 28 122 74 122 151 0 25 4 73 10 107 5 33 12 92 16 129 4 47 10 70 21 74 8 3 45 -10 81 -29 37 -19 96 -51 132 -69 121 -64 205 -75 230 -29 16 30 12 82 -10 118 -16 27 -26 32 -56 32 -20 0 -54 -5 -74 -11 -35 -11 -41 -9 -86 22 -51 35 -126 90 -157 115 -10 8 -38 25 -63 37 -42 20 -46 20 -72 5 -16 -9 -43 -47 -65 -90 -21 -40 -42 -74 -47 -76 -8 -3 -36 51 -88 168 -45 101 -51 124 -58 205 -7 85 -7 85 47 132 64 57 214 206 249 248 83 99 102 127 125 179 14 31 25 68 25 82 0 37 -24 77 -64 107 -19 15 -40 32 -48 39 -88 83 -181 141 -332 208 -48 22 -48 22 -41 94 6 70 23 138 38 152 4 4 7 16 7 26 0 45 -129 0 -152 -54 -7 -15 -18 -28 -24 -28 -6 0 -55 45 -108 100 -96 101 -96 101 -96 155 0 30 5 67 11 82 31 74 40 90 63 112 14 14 26 30 26 38 0 18 9 17 58 -7 22 -11 46 -20 52 -20 5 0 10 -4 10 -10 0 -5 5 -10 10 -10 6 0 40 -18 76 -40 36 -22 68 -40 70 -40 6 0 157 -101 164 -110 3 -3 19 -16 37 -28 18 -13 49 -40 70 -61 21 -20 54 -48 73 -62 78 -53 267 -264 319 -353 13 -22 26 -43 30 -46 29 -21 166 -272 222 -407 5 -13 13 -33 18 -45 5 -13 15 -41 22 -63 6 -22 15 -49 20 -60 4 -11 10 -33 14 -50 3 -16 10 -48 16 -70 82 -321 74 -676 -23 -1015 -5 -19 -12 -47 -15 -63 -3 -15 -9 -30 -14 -33 -5 -3 -9 -14 -9 -25 0 -10 -4 -27 -9 -37 -5 -9 -13 -28 -19 -42 -51 -127 -89 -200 -172 -336 -24 -38 -58 -95 -77 -126 -18 -32 -59 -86 -90 -120 -78 -87 -310 -315 -353 -347 -19 -14 -44 -34 -54 -43 -11 -10 -23 -18 -27 -18 -4 0 -45 -23 -91 -51 -115 -72 -272 -156 -335 -180 -13 -5 -33 -13 -45 -19 -13 -5 -68 -23 -123 -41 -55 -17 -109 -35 -120 -39 -11 -4 -47 -13 -80 -20 -33 -6 -78 -16 -100 -20 -111 -24 -242 -32 -460 -27 -126 3 -257 10 -290 15 -150 25 -149 24 -257 53 -54 15 -216 67 -245 80 -13 5 -33 13 -45 18 -76 29 -344 176 -368 201 -3 3 -18 12 -35 20 -64 32 -167 120 -318 274 -168 169 -247 265 -297 362 -17 32 -35 63 -39 69 -5 5 -22 35 -38 65 -17 30 -39 71 -50 90 -10 19 -34 73 -52 120 -18 47 -36 94 -41 105 -4 11 -13 40 -20 65 -7 25 -16 56 -20 70 -18 60 -30 109 -39 170 -6 36 -15 95 -21 131 -13 86 -13 393 1 478 27 172 49 267 91 396 25 76 68 167 77 163 4 -2 39 -18 77 -37 121 -60 173 -72 300 -70 52 1 96 0 97 -2 9 -13 87 -180 98 -209 7 -19 21 -47 31 -62 10 -14 18 -31 18 -37 0 -6 5 -11 10 -11 6 0 10 -5 10 -10 0 -6 18 -33 40 -61 36 -46 40 -56 40 -109 0 -84 12 -107 106 -209 28 -31 56 -72 62 -91 11 -35 37 -429 29 -437 -3 -2 -33 5 -68 16 -34 12 -71 21 -81 21 -10 0 -28 5 -41 12 -12 6 -29 14 -37 18 -21 10 -55 105 -79 225 -6 28 -15 71 -21 97 -8 36 -7 54 5 82 19 45 19 97 0 122 -8 10 -15 29 -15 42 0 12 -4 22 -10 22 -5 0 -10 -3 -10 -8 0 -4 -18 -8 -40 -8 -78 -2 -101 -58 -58 -138 13 -22 28 -46 34 -53 7 -7 13 -80 16 -195 5 -181 5 -184 37 -249 30 -63 36 -68 99 -99 37 -18 77 -36 90 -41 12 -5 32 -13 45 -18 12 -5 59 -27 105 -50 79 -39 197 -69 226 -58 25 10 49 -18 48 -54 0 -19 -2 -69 -3 -111 -2 -70 0 -80 25 -112 36 -48 74 -66 141 -66 77 0 134 35 160 98 14 32 10 67 -22 209 -7 32 -52 73 -79 73 -21 0 -44 25 -44 47 0 4 13 16 29 25 36 20 71 85 71 129 0 30 12 77 31 124 4 11 19 54 33 95 24 75 24 75 106 78 113 4 190 -11 213 -43 17 -23 113 -75 138 -75 26 0 42 34 56 115 8 51 -23 70 -116 70 -72 0 -81 3 -185 55 -97 49 -117 55 -180 58 -96 4 -122 -13 -166 -107 -19 -39 -36 -71 -40 -71 -5 0 -35 61 -102 210 -16 36 -34 73 -39 84 -6 10 -13 52 -16 92 -5 61 -3 74 9 74 29 0 227 142 314 225 12 11 51 46 88 78 83 73 100 104 92 166 -10 70 -27 542 -21 576 3 21 13 34 32 41 53 22 141 37 175 30 26 -5 39 -2 49 10 12 14 10 20 -18 43 -17 14 -53 32 -80 40 -26 8 -70 26 -97 40 -31 15 -67 25 -95 25 -41 1 -47 -2 -60 -28 -7 -16 -17 -73 -22 -125 -7 -98 -13 -127 -31 -171 -6 -14 -14 -34 -19 -45 -57 -138 -62 -244 -17 -341 6 -12 8 -29 6 -39 -3 -15 -73 -63 -118 -81 -8 -4 -94 -45 -190 -93 -96 -47 -177 -87 -180 -89 -3 -1 -14 11 -24 28 -9 17 -27 41 -39 53 -12 13 -47 52 -77 87 -83 98 -210 219 -255 243 -24 13 -69 24 -115 28 -69 7 -108 13 -255 40 -27 5 -69 12 -92 15 -54 8 -54 16 0 116 96 176 329 436 532 594 64 49 253 174 265 174 5 0 10 3 10 8 0 4 10 12 23 18 12 6 49 25 82 42 90 46 147 72 161 72 6 0 65 17 130 39 66 21 142 44 169 50 28 7 66 16 85 21 40 10 140 25 250 39 86 11 366 6 485 -9 z  m 983 -1160 c 22 -11 47 -20 54 -20 7 0 22 -8 33 -16 20 -15 19 -16 -17 -48 -20 -17 -49 -38 -65 -46 -15 -8 -40 -22 -55 -32 -44 -30 -44 -31 -23 102 15 92 12 89 73 60 z "></path></g></g></svg>